<svg width="240" height="70" viewBox="0 0 240 70" fill="none" xmlns="http://www.w3.org/2000/svg">
<path fill-rule="evenodd" clip-rule="evenodd" d="M68.3167 13.0938C59.9417 6.13177 49.3235 1.56769 38.6341 0.335273C27.9447 -0.897144 17.9922 1.29525 10.8126 6.46396C3.6329 11.6327 -0.231213 19.387 0.0107107 28.1406C0.25263 36.8943 4.5823 45.9856 12.114 53.5547C19.6457 61.1238 29.8101 66.5986 40.5279 68.8592C51.2457 71.1197 61.7067 69.995 69.771 65.7153C76.5117 62.138 81.152 56.5821 83.0874 49.8975C83.4423 49.8361 83.7909 49.7656 84.1332 49.6862C85.6398 49.3363 86.6733 49.0915 87.2339 48.9515C87.7244 48.8116 88.1624 48.6017 88.5478 48.3218C88.9332 48.042 89.3536 47.8146 89.8091 47.6397C91.4558 46.975 92.9624 46.048 94.3288 44.8586C95.6953 43.6692 97.0442 42.6022 98.3755 41.6577C98.9712 41.2729 99.4091 40.8881 99.6894 40.5033C100.005 40.1185 100.162 39.8211 100.162 39.6112C100.162 39.4013 100.04 39.2964 99.7945 39.2964C99.5493 39.2964 99.1288 39.4713 98.5332 39.8211C97.9726 40.136 97.2369 40.6957 96.3259 41.5003C95.2748 42.4448 94.2062 43.3368 93.1201 44.1764C92.069 45.016 90.685 45.7506 88.9682 46.3803C88.6179 46.5203 88.215 46.6427 87.7595 46.7476C87.304 46.8526 86.9186 46.94 86.6033 47.01C86.358 47.045 85.9201 47.2199 85.2894 47.5347C84.6588 47.8146 84.2208 47.9895 83.9755 48.0595C83.8577 48.0726 83.7104 48.0905 83.5338 48.1134C83.692 47.3664 83.8176 46.6069 83.91 45.8361C84.6384 39.7559 83.2538 33.2985 79.9895 27.1573C81.2881 25.9903 82.7745 24.9292 84.4485 23.9741C86.9361 22.5398 89.5288 21.2279 92.2266 20.0385C93.1025 19.6537 93.9259 19.3914 94.6967 19.2514C95.4675 19.1115 96.1858 19.0415 96.8515 19.0415C97.3069 19.0415 97.7274 19.0765 98.1128 19.1465C98.4982 19.2165 98.8485 19.2514 99.1639 19.2514H99.2164C99.777 19.2514 100.232 19.3214 100.583 19.4613C100.933 19.5663 101.196 19.8112 101.371 20.196C101.441 20.4059 101.546 20.6507 101.687 20.9306C101.862 21.2105 101.984 21.4378 102.054 21.6127C102.23 22.1375 102.51 22.3999 102.895 22.3999C103.246 22.3999 103.578 22.19 103.894 21.7702C104.244 21.3504 104.419 20.8606 104.419 20.3009C104.419 20.161 104.402 20.0385 104.367 19.9336C104.367 19.8286 104.349 19.7237 104.314 19.6187C104.209 19.2339 104.122 18.8316 104.051 18.4119C103.981 17.9921 103.806 17.6073 103.526 17.2574C103.281 16.8726 102.773 16.5928 102.002 16.4179C101.126 16.208 100.005 16.103 98.6383 16.103C97.3069 16.103 95.923 16.208 94.4865 16.4179C93.085 16.6278 91.8938 16.9251 90.9128 17.3099C89.7566 17.7647 88.4952 18.2369 87.1288 18.7267C85.7624 19.2165 84.5712 19.8286 83.5551 20.5633C83.3449 20.7382 83.2047 21.018 83.1347 21.4029C83.0996 21.7877 82.9945 22.0325 82.8193 22.1375C82.7493 22.2075 82.6441 22.2599 82.504 22.2949H82.031C81.8909 22.2949 81.7332 22.3124 81.558 22.3474C81.3828 22.3474 81.2076 22.3999 81.0325 22.5048L80.1916 23.2394C79.9113 23.4843 79.631 23.7467 79.3507 24.0265C79.0932 24.2619 78.8405 24.4972 78.5924 24.7326C77.6022 23.1401 76.4838 21.576 75.2413 20.0528L71.9257 21.5459C70.1199 19.3287 68.0343 17.2225 65.6964 15.2791L68.3167 13.0938ZM45.8843 31.802L30.2351 3.88803L37.1758 35.6923L54.3394 66.3077C46.5809 67.0681 37.9023 65.6368 29.5563 61.751C9.82695 52.5653 -0.573297 33.1419 6.32665 18.3678C13.2266 3.59365 34.8139 -0.936662 54.5432 8.24906C58.6999 10.1844 62.4425 12.5741 65.6964 15.2791L45.8843 31.802ZM54.4152 66.3002L54.3394 66.3077L54.4662 66.5339L54.4152 66.3002ZM46.5428 32.9766L71.9257 21.5459C73.4722 23.4449 74.8135 25.4254 75.932 27.4549C74.9136 28.5859 74.0035 29.717 73.2018 30.8481C71.6252 33.087 70.539 35.5008 69.9434 38.0895C69.8733 38.4393 69.8033 38.8766 69.7332 39.4013C69.6631 39.8911 69.6281 40.4158 69.6281 40.9755C69.6281 42.2699 69.8033 43.5992 70.1536 44.9635C70.539 46.3278 71.1697 47.3773 72.0456 48.112C73.0617 48.8816 74.1828 49.4238 75.4091 49.7386C76.3911 49.9838 77.3838 50.1335 78.3871 50.1877C78.2001 50.6738 77.9955 51.1554 77.7728 51.6323C73.8012 60.1361 64.9637 65.2462 54.4152 66.3002L47.5256 34.7297L46.5428 32.9766ZM78.9946 48.3827C80.6785 42.5768 79.9739 36.2598 77.311 30.2347C77.1468 30.425 76.9332 30.6644 76.6704 30.9531C76.3201 31.3379 76.0748 31.6352 75.9347 31.8451C75.4091 32.5797 75.0062 33.3843 74.7259 34.2589C74.4456 35.0985 74.2179 35.9206 74.0427 36.7252C73.8675 37.5298 73.6573 38.1944 73.412 38.7192C73.2018 39.1739 73.0441 39.6462 72.939 40.136C72.869 40.5907 72.8339 41.063 72.8339 41.5527C72.8339 42.3923 72.939 43.1969 73.1493 43.9665C73.3945 44.7361 73.6573 45.3833 73.9376 45.9081C74.4982 46.9226 75.3566 47.6047 76.5128 47.9545C77.34 48.1732 78.1673 48.3159 78.9946 48.3827Z" fill="#D9A150"/>
<path fill-rule="evenodd" clip-rule="evenodd" d="M101.813 48.7941C102.129 48.969 102.567 49.0565 103.127 49.0565C103.933 49.0565 104.809 48.7766 105.755 48.2169C106.736 47.6222 107.682 46.8876 108.593 46.013C109.539 45.1035 110.362 44.1939 111.063 43.2844C111.378 42.8646 111.641 42.4623 111.851 42.0775C112.097 41.6577 112.324 41.2729 112.535 40.9231C112.815 40.4683 113.113 40.031 113.428 39.6112C113.743 39.1914 114.024 38.7716 114.269 38.3519C114.374 38.072 114.444 37.8096 114.479 37.5647C114.514 37.2849 114.567 37.0575 114.637 36.8826C114.847 36.2879 115.04 35.7457 115.215 35.2559C115.39 34.7662 115.495 34.3114 115.53 33.8916L116.056 33.8391C116.406 33.8041 116.879 33.7167 117.475 33.5767L119.367 33.052C119.997 32.8771 120.523 32.7372 120.943 32.6322L121.627 32.4223C121.767 32.3524 121.889 32.2299 121.994 32.055C122.135 31.8801 122.205 31.7227 122.205 31.5827C122.205 31.4428 122.135 31.3204 121.994 31.2154C121.749 31.2154 121.294 31.2854 120.628 31.4253C119.997 31.5303 119.332 31.6527 118.631 31.7926C117.93 31.8976 117.387 31.9501 117.002 31.9501C116.862 31.9501 116.721 31.9676 116.581 32.0025C116.441 32.0375 116.301 32.055 116.161 32.055C115.881 32.055 115.74 31.8626 115.74 31.4778V31.2679C115.74 31.1979 115.758 31.1105 115.793 31.0055C115.863 30.4808 115.705 30.096 115.32 29.8511C114.97 29.6062 114.619 29.4838 114.269 29.4838C114.094 29.4838 113.918 29.5188 113.743 29.5887C113.603 29.6237 113.463 29.6412 113.323 29.6412C112.377 29.1165 111.554 28.8541 110.853 28.8541C110.572 28.8541 110.327 28.9066 110.117 29.0115H110.17C109.714 29.2914 109.083 29.6412 108.278 30.061C107.472 30.4808 106.754 31.1105 106.123 31.9501C105.983 32.055 105.86 32.2474 105.755 32.5273C105.685 32.7721 105.65 32.9646 105.65 33.1045C105.58 33.1744 105.475 33.2444 105.335 33.3144C105.194 33.3494 105.054 33.4368 104.914 33.5767C104.459 34.2414 104.021 34.9236 103.6 35.6232L102.444 37.7222V37.6697C101.568 39.104 100.937 40.4858 100.552 41.8151C100.167 43.1095 99.9739 44.2639 99.9739 45.2784C99.9739 46.6777 100.289 47.6397 100.92 48.1644C101.2 48.3743 101.498 48.5842 101.813 48.7941ZM106.491 45.8556C105.264 46.8351 104.301 47.3248 103.6 47.3248C103.425 47.3248 103.25 47.2724 103.075 47.1674C102.935 47.0975 102.882 47.01 102.917 46.9051C102.952 46.7651 102.917 46.5727 102.812 46.3279C102.812 46.048 102.882 45.7681 103.022 45.4883C103.162 45.2084 103.232 44.8761 103.232 44.4913V44.4388C103.232 44.3338 103.25 44.2114 103.285 44.0715C103.355 43.8966 103.39 43.7217 103.39 43.5467C103.565 42.8471 103.828 42.13 104.178 41.3953C104.529 40.6607 104.879 39.9785 105.229 39.3489V39.4013C105.58 38.8416 105.948 38.2644 106.333 37.6697C106.754 37.04 107.139 36.4453 107.489 35.8856C107.594 35.7107 107.647 35.5533 107.647 35.4133C107.682 35.2384 107.735 35.1335 107.805 35.0985L107.857 34.9935C107.822 34.9935 107.892 34.9411 108.067 34.8361C108.243 34.7312 108.33 34.6962 108.33 34.7312L108.383 34.6787C108.628 34.4338 108.768 34.2064 108.803 33.9965C108.838 33.7866 108.926 33.6117 109.066 33.4718C109.171 33.3668 109.259 33.3494 109.329 33.4193C109.434 33.4893 109.574 33.5243 109.749 33.5243C109.854 33.5243 109.959 33.5068 110.064 33.4718C110.24 33.5418 110.485 33.6292 110.8 33.7342C111.116 33.8391 111.273 33.9091 111.273 33.9441H111.116C110.8 33.9441 110.8 33.9616 111.116 33.9965C111.466 34.0315 111.904 34.0665 112.429 34.1015C112.955 34.1365 113.34 34.154 113.586 34.154C113.551 34.4688 113.463 34.8361 113.323 35.2559C113.183 35.6757 113.008 36.148 112.797 36.6727V37.04C112.832 37.075 112.85 37.1275 112.85 37.1974C112.85 37.3024 112.832 37.3898 112.797 37.4598C112.762 37.5997 112.64 37.8096 112.429 38.0895C112.219 38.3344 112.009 38.5617 111.799 38.7716L111.536 39.0865C111.361 39.4713 111.116 39.9436 110.8 40.5033C110.52 41.063 110.24 41.5527 109.959 41.9725H110.012C108.926 43.5467 107.752 44.8411 106.491 45.8556Z" fill="#D9A150"/>
<path d="M117.466 48.007C117.466 48.6367 117.624 49.004 117.939 49.109C118.115 49.109 118.325 49.074 118.57 49.004C118.85 48.8991 119.131 48.6717 119.411 48.3218C119.481 48.2519 119.586 48.1819 119.726 48.112C119.866 48.007 120.007 47.8321 120.147 47.5872C120.252 47.3773 120.339 47.115 120.41 46.8001C120.48 46.4853 120.585 46.2404 120.725 46.0655C121.846 44.5263 123.195 43.057 124.772 41.6577C126.348 40.2234 127.995 38.8941 129.712 37.6697L131.341 36.6202C131.656 36.3753 131.919 36.1829 132.129 36.043C132.375 35.9031 132.637 35.7457 132.918 35.5707H132.865C132.97 35.5707 133.18 35.4658 133.496 35.2559C133.811 35.046 134.126 34.8186 134.442 34.5737C134.792 34.3289 135.037 34.1889 135.177 34.154C135.493 34.014 135.808 33.9266 136.123 33.8916C136.474 33.8566 136.737 33.8391 136.912 33.8391C137.227 33.8741 137.472 33.9266 137.648 33.9965C137.858 34.0315 137.963 34.1714 137.963 34.4163C137.963 34.7661 137.77 35.2734 137.385 35.9381V36.043L137.175 36.7252C137.069 37.145 137.017 37.4248 137.017 37.5647V37.4598L136.596 38.3519C136.246 38.9116 135.913 39.5413 135.598 40.2409C135.283 40.9056 134.932 41.6402 134.547 42.4448C134.477 42.6897 134.477 42.8296 134.547 42.8646C134.617 42.8996 134.599 42.987 134.494 43.127V43.1794C134.529 43.2144 134.424 43.3718 134.179 43.6517C133.934 43.8966 133.794 44.124 133.758 44.3339C133.794 44.3688 133.758 44.4563 133.653 44.5962C133.548 44.7012 133.478 44.8411 133.443 45.016V44.9635C133.198 45.6282 133.005 46.2054 132.865 46.6952C132.76 47.1849 132.707 47.6222 132.707 48.007C132.707 48.6367 132.865 49.004 133.18 49.109C133.356 49.109 133.583 49.074 133.864 49.004C134.144 48.8991 134.407 48.6717 134.652 48.3218C134.722 48.2519 134.827 48.1819 134.967 48.112C135.142 48.007 135.283 47.8321 135.388 47.5872C135.493 47.3773 135.58 47.115 135.65 46.8001C135.721 46.4853 135.826 46.2404 135.966 46.0655C137.087 44.5263 138.436 43.057 140.012 41.6577C141.624 40.2234 143.288 38.8941 145.005 37.6697C145.215 37.4948 145.478 37.3199 145.794 37.145L146.582 36.6202C146.897 36.3753 147.23 36.148 147.58 35.9381L148.158 35.5707C148.264 35.5707 148.491 35.5008 148.842 35.3609C149.192 35.2209 149.56 35.0635 149.945 34.8886C150.331 34.7137 150.611 34.5912 150.786 34.5213C151.066 34.3813 151.54 34.2589 152.205 34.154C152.871 34.049 153.274 33.9965 153.414 33.9965C153.799 33.8566 153.799 34.049 153.414 34.5737C153.064 35.0985 152.591 35.8681 151.995 36.8826C151.68 37.4073 151.277 38.037 150.786 38.7716C150.331 39.5063 149.893 40.2234 149.472 40.9231C149.052 41.6227 148.754 42.1649 148.579 42.5497C148.439 42.9346 148.246 43.3893 148.001 43.9141C147.756 44.4038 147.633 44.8236 147.633 45.1734C147.633 45.3134 147.65 45.5582 147.685 45.9081L147.791 46.4328C147.931 46.6777 148.053 46.8176 148.158 46.8526C148.299 46.8526 148.334 46.8876 148.264 46.9575V47.2724C148.299 47.3423 148.316 47.4123 148.316 47.4823V47.5347C148.456 47.7796 148.579 48.007 148.684 48.2169C148.824 48.4268 149.104 48.5317 149.525 48.5317C150.085 48.6017 150.488 48.5667 150.734 48.4268C150.979 48.2519 151.102 48.0595 151.102 47.8496C151.102 47.7446 151.031 47.5872 150.891 47.3773C150.821 47.3074 150.716 47.2199 150.576 47.115C150.436 46.975 150.366 46.8701 150.366 46.8001V46.7476C150.331 46.5727 150.348 46.3628 150.418 46.118C150.523 45.8381 150.594 45.5932 150.629 45.3833C150.804 44.6137 151.154 43.7566 151.68 42.8121C152.24 41.8326 152.818 40.9231 153.414 40.0835C154.045 39.2089 154.518 38.5617 154.833 38.142C155.113 37.8271 155.323 37.5822 155.464 37.4073C155.639 37.1974 155.831 36.9001 156.042 36.5153V36.5677C156.077 36.4978 156.182 36.3229 156.357 36.043C156.532 35.7632 156.655 35.5707 156.725 35.4658C156.865 35.2559 156.988 35.081 157.093 34.9411C157.198 34.7662 157.25 34.6087 157.25 34.4688V34.5213C157.461 33.8916 157.566 33.3494 157.566 32.8946C157.566 32.3699 157.426 31.9676 157.145 31.6877C156.69 31.4078 156.077 31.2679 155.306 31.2679C154.185 31.2679 152.853 31.5303 151.312 32.055C150.856 32.1949 150.471 32.3524 150.156 32.5273C149.84 32.6672 149.577 32.7896 149.367 32.8946H149.42C149.315 32.8946 149.017 33.0695 148.526 33.4193C148.036 33.7342 147.563 34.049 147.107 34.3638C146.687 34.6787 146.459 34.8361 146.424 34.8361H146.372C144.9 35.7107 143.709 36.4628 142.798 37.0925C141.922 37.7222 141.081 38.3868 140.275 39.0865L139.329 39.7686C139.364 39.4538 139.469 39.2089 139.645 39.034C139.82 38.8241 139.977 38.5443 140.118 38.1944C140.258 37.8096 140.345 37.5298 140.38 37.3549C140.45 37.1799 140.591 36.9001 140.801 36.5153V36.5677C140.836 36.4978 140.941 36.3229 141.116 36.043C141.291 35.7632 141.414 35.5707 141.484 35.4658C141.624 35.2559 141.747 35.081 141.852 34.9411C141.957 34.7662 142.01 34.6087 142.01 34.4688V34.5213C142.22 33.9266 142.325 33.4018 142.325 32.9471C142.325 32.3174 142.167 31.8976 141.852 31.6877C141.467 31.4078 140.871 31.2679 140.065 31.2679C138.944 31.2679 137.612 31.5303 136.071 32.055C135.615 32.1949 135.177 32.3699 134.757 32.5797L134.126 32.8946C134.021 32.8946 133.723 33.0695 133.233 33.4193L131.866 34.3638C131.446 34.6787 131.218 34.8361 131.183 34.8361H131.078C129.642 35.7107 128.45 36.4628 127.504 37.0925C126.593 37.6872 125.77 38.3519 125.034 39.0865C124.859 39.2264 124.702 39.3838 124.561 39.5587C124.596 39.139 124.666 38.7367 124.772 38.3519C124.912 37.9321 125.122 37.4948 125.402 37.04C125.472 36.8651 125.507 36.7602 125.507 36.7252V36.5677C125.507 36.4978 125.56 36.3928 125.665 36.2529C125.77 36.078 126.05 35.8506 126.506 35.5707C126.996 35.2909 127.347 35.081 127.557 34.9411C128.048 34.6612 128.485 34.3114 128.871 33.8916C129.291 33.4718 129.502 32.8771 129.502 32.1075C129.502 31.5128 129.291 31.0755 128.871 30.7956C128.485 30.4808 127.995 30.3234 127.399 30.3234C126.839 30.3234 126.243 30.4808 125.612 30.7956C125.017 31.0755 124.579 31.4953 124.299 32.055L124.036 32.3174C123.896 32.4923 123.791 32.6672 123.72 32.8421C123.685 33.087 123.65 33.3144 123.615 33.5243V33.8391C123.37 34.1889 123.195 34.4513 123.09 34.6262C122.985 34.8011 122.897 34.976 122.827 35.151C122.687 35.5008 122.564 35.7631 122.459 35.9381C122.389 36.113 122.284 36.3928 122.144 36.7776L121.881 37.04C121.776 37.145 121.706 37.2674 121.671 37.4073V37.3024C121.566 37.5123 121.478 37.7397 121.408 37.9845L121.303 38.3519C120.988 38.9116 120.672 39.5413 120.357 40.2409C120.042 40.9056 119.691 41.6402 119.306 42.4448C119.201 42.6897 119.183 42.8296 119.253 42.8646C119.323 42.8996 119.323 42.987 119.253 43.127V43.1794C119.288 43.2144 119.166 43.3718 118.885 43.6517C118.64 43.8966 118.5 44.124 118.465 44.3339C118.5 44.3688 118.465 44.4563 118.36 44.5962C118.29 44.7012 118.237 44.8411 118.202 45.016V44.9635C117.957 45.6282 117.764 46.2054 117.624 46.6952C117.519 47.1849 117.466 47.6222 117.466 48.007Z" fill="#D9A150"/>
<path fill-rule="evenodd" clip-rule="evenodd" d="M149.194 63.4343C149.299 63.7141 149.544 63.8541 149.929 63.8541C150.385 63.8541 150.91 63.6791 151.506 63.3293C152.067 62.9795 152.434 62.6472 152.61 62.3323C152.715 62.0525 152.767 61.7901 152.767 61.5452C152.732 61.3003 152.75 60.968 152.82 60.5482C152.855 60.1634 153.013 59.6037 153.293 58.8691C153.433 58.4143 153.556 57.9595 153.661 57.5047C153.731 57.085 153.871 56.7351 154.081 56.4553H154.029C154.239 56.2104 154.467 55.8081 154.712 55.2484C154.957 54.6887 155.202 54.1464 155.448 53.6217C155.693 53.0969 155.886 52.7646 156.026 52.6247C156.166 52.4498 156.481 51.925 156.972 51.0505C157.462 50.2109 157.918 49.3713 158.338 48.5317C158.513 49.2314 158.899 49.7037 159.494 49.9485C160.125 50.2284 160.826 50.3683 161.596 50.3683C162.332 50.3683 163.086 50.2984 163.856 50.1584C164.627 50.0185 165.31 49.9135 165.906 49.8436H165.959C168.201 49.3538 170.058 48.6542 171.529 47.7446C173.036 46.8001 174.28 45.943 175.261 45.1734C175.366 45.1035 175.594 44.9635 175.944 44.7536C176.294 44.5437 176.557 44.3513 176.732 44.1764C176.978 43.9315 177.1 43.7391 177.1 43.5992C177.135 43.4243 177.223 43.2844 177.363 43.1794C178.484 42.1649 179.448 41.2204 180.253 40.3459C181.094 39.4363 181.742 38.4743 182.198 37.4598C182.338 37.075 182.443 36.7776 182.513 36.5677C182.618 36.3229 182.688 36.078 182.723 35.8331C182.829 35.4483 182.916 35.081 182.986 34.7312C183.056 34.3464 183.091 33.9965 183.091 33.6817C183.091 32.3524 182.636 31.3379 181.725 30.6382C181.199 30.2534 180.534 30.061 179.728 30.061C178.852 30.061 177.678 30.2709 176.207 30.6907C174.665 31.1455 173.176 31.7577 171.74 32.5273C170.303 33.2969 169.059 34.084 168.008 34.8886C168.043 34.7487 168.096 34.6262 168.166 34.5213C168.271 34.3813 168.324 34.2589 168.324 34.154C168.394 33.979 168.481 33.7866 168.586 33.5767C168.691 33.3319 168.744 33.122 168.744 32.9471C168.744 32.5623 168.499 32.3699 168.008 32.3699C167.798 32.3699 167.64 32.3873 167.535 32.4223H167.588C166.747 32.5623 165.994 32.8071 165.328 33.157C164.697 33.5068 164.242 33.8391 163.961 34.154L163.226 34.7836C163.015 34.9935 162.84 35.2559 162.7 35.5707V35.6232C162.665 35.7632 162.63 35.9381 162.595 36.148C162.56 36.3578 162.542 36.5328 162.542 36.6727C162.437 36.7776 162.262 36.8826 162.017 36.9875C161.807 37.0925 161.684 37.2324 161.649 37.4073V37.3024C161.439 37.6522 161.018 38.3693 160.388 39.4538C159.757 40.5383 159.021 41.8151 158.18 43.2844C157.375 44.7536 156.551 46.2579 155.71 47.7971C154.869 49.3014 154.134 50.6657 153.503 51.8901C152.837 53.1494 152.382 54.0765 152.137 54.6712C151.786 55.5107 151.348 56.3503 150.823 57.1899C150.297 58.0645 149.947 58.7816 149.772 59.3413C149.421 60.1109 149.194 60.7056 149.088 61.1254C148.948 61.5802 148.878 61.9475 148.878 62.2274C148.878 62.4722 148.931 62.6821 149.036 62.8571C149.106 63.032 149.159 63.2419 149.194 63.4867V63.4343ZM165.17 48.2169C164.329 48.4268 163.594 48.5317 162.963 48.5317C162.402 48.5317 161.912 48.4793 161.491 48.3743C161.106 48.2344 160.826 48.0945 160.651 47.9545C160.686 47.8496 160.651 47.7271 160.545 47.5872C160.475 47.4473 160.44 47.2899 160.44 47.115C160.44 46.8701 160.51 46.6602 160.651 46.4853C160.721 46.4153 160.861 46.1354 161.071 45.6457L161.807 44.1764C162.052 43.6517 162.192 43.3718 162.227 43.3368C162.893 42.5323 163.453 41.7626 163.909 41.028C164.364 40.2934 164.942 39.6462 165.643 39.0865C165.853 38.9116 166.099 38.6842 166.379 38.4043C166.694 38.1245 166.957 37.9146 167.167 37.7746C167.518 37.5298 167.956 37.2149 168.481 36.8301C169.007 36.4453 169.427 36.1829 169.742 36.043H169.69C169.865 36.008 170.163 35.7981 170.583 35.4133C171.039 34.9935 171.354 34.7137 171.529 34.5737C172.16 34.2239 172.615 34.014 172.896 33.9441C173.176 33.8391 173.474 33.7517 173.789 33.6817C174.14 33.6117 174.7 33.4718 175.471 33.2619C176.242 33.017 176.89 32.8946 177.415 32.8946C177.696 32.8946 177.941 32.9471 178.151 33.052C178.396 33.122 178.624 33.2269 178.834 33.3669C179.29 33.6817 179.518 34.154 179.518 34.7836C179.518 35.3783 179.36 36.043 179.045 36.7776C178.729 37.4773 178.326 38.1769 177.836 38.8766C177.38 39.5413 176.925 40.1534 176.469 40.7132C176.049 41.2379 175.716 41.6227 175.471 41.8676C175.156 42.1824 174.875 42.4798 174.63 42.7596C174.385 43.0045 174.087 43.2844 173.737 43.5992L172.948 44.3863C172.563 44.7711 172.3 45.016 172.16 45.121C171.599 45.6107 171.021 46.048 170.426 46.4328C169.76 46.8876 169.024 47.2199 168.218 47.4298C167.413 47.6397 166.397 47.9021 165.17 48.2169Z" fill="#D9A150"/>
<path d="M181.55 49.3713C181.831 49.6162 182.181 49.7386 182.602 49.7386C182.917 49.7386 183.285 49.6512 183.705 49.4763C184.826 48.8466 185.79 48.2344 186.596 47.6397C187.402 47.045 188.19 46.4153 188.961 45.7506C189.732 45.086 190.607 44.3688 191.588 43.5992L193.007 42.2874C193.077 42.2524 193.2 42.1824 193.375 42.0775C193.55 41.9375 193.691 41.8326 193.796 41.7626C194.496 41.1679 195.11 40.6257 195.635 40.136C196.161 39.6462 196.669 39.1739 197.159 38.7192C197.019 39.034 196.896 39.3663 196.791 39.7162C196.686 40.031 196.529 40.4333 196.318 40.9231C196.108 41.4128 195.775 42.095 195.32 42.9695C194.759 44.019 194.304 44.981 193.953 45.8556C193.638 46.6952 193.48 47.4298 193.48 48.0595C193.48 48.2694 193.515 48.5143 193.586 48.7941C193.656 48.969 193.743 49.074 193.848 49.109C193.988 49.1789 194.094 49.2489 194.164 49.3188C194.269 49.4238 194.567 49.4763 195.057 49.4763C195.197 49.4763 195.337 49.4588 195.477 49.4238C195.653 49.4238 195.81 49.3888 195.95 49.3188C196.126 49.2139 196.423 48.9166 196.844 48.4268C197.299 47.9021 197.597 47.5697 197.737 47.4298C198.403 46.7651 199.034 46.2929 199.629 46.013C200.225 45.6982 201.031 45.1734 202.047 44.4388C202.467 44.1589 202.677 43.8791 202.677 43.5992C202.677 43.3543 202.537 43.2319 202.257 43.2319C202.082 43.2319 201.872 43.3019 201.626 43.4418C201.276 43.6867 200.838 43.8966 200.313 44.0715C199.787 44.2114 199.296 44.3863 198.841 44.5962L197.948 45.1734C197.878 44.8236 197.948 44.2989 198.158 43.5992C198.403 42.8646 198.683 42.1999 198.999 41.6052C199.524 40.6607 199.945 39.8561 200.26 39.1914C200.575 38.4918 200.873 37.967 201.153 37.6172C201.329 37.3723 201.609 37.1624 201.994 36.9875C202.38 36.7776 202.502 36.4278 202.362 35.9381C202.152 35.0635 201.644 34.6262 200.838 34.6262C200.277 34.6262 199.769 34.8536 199.314 35.3084C198.999 35.5882 198.613 35.9206 198.158 36.3054C197.737 36.6902 197.142 37.2149 196.371 37.8796C195.6 38.5093 194.584 39.3663 193.323 40.4508C193.183 40.5557 193.06 40.6782 192.955 40.8181C192.885 40.958 192.762 41.098 192.587 41.2379C192.482 41.3429 192.342 41.4303 192.167 41.5003C192.026 41.5702 191.869 41.6927 191.694 41.8676C191.343 42.1824 190.87 42.6022 190.275 43.127C189.679 43.6167 189.066 44.1065 188.435 44.5962C187.804 45.086 187.191 45.5058 186.596 45.8556C186.035 46.2054 185.562 46.3803 185.177 46.3803C184.967 46.3803 184.879 46.2404 184.914 45.9605C185.089 45.1559 185.352 44.2464 185.702 43.2319C186.088 42.1824 186.771 40.9406 187.752 39.5063C188.733 38.072 190.222 36.3753 192.219 34.4163C194.181 32.5623 195.828 31.6352 197.159 31.6352C197.264 31.6352 197.369 31.6702 197.475 31.7402C197.58 31.7751 197.685 31.7926 197.79 31.7926H197.842C198.018 31.7926 198.175 31.8101 198.315 31.8451C198.456 31.8451 198.543 31.8801 198.578 31.9501C198.753 32.125 198.894 32.3349 198.999 32.5797C199.139 32.8246 199.209 33.122 199.209 33.4718C199.209 33.7167 199.279 33.9091 199.419 34.049C199.594 34.1889 199.769 34.2589 199.945 34.2589C200.155 34.2589 200.33 34.1889 200.47 34.049L200.523 33.9965C200.733 33.5767 200.838 32.9995 200.838 32.2649C200.838 31.6352 200.645 31.023 200.26 30.4283C199.875 29.7986 199.086 29.4838 197.895 29.4838H197.842C196.266 29.4838 194.777 29.7637 193.375 30.3234C191.974 30.8481 190.66 31.7402 189.434 32.9995C187.787 34.7137 186.403 36.4628 185.282 38.2469C184.196 40.031 183.32 41.7102 182.654 43.2844C181.988 44.8586 181.515 46.2229 181.235 47.3773C181.2 47.5173 181.183 47.6572 181.183 47.7971C181.148 47.937 181.13 48.077 181.13 48.2169C181.13 48.7416 181.27 49.1264 181.55 49.3713Z" fill="#D9A150"/>
<path d="M201.57 51.995C201.955 52.065 202.428 52.1 202.989 52.1C203.654 52.1 204.583 51.925 205.774 51.5752C206.965 51.2604 208.244 50.6832 209.611 49.8436C211.397 48.7591 212.781 47.7271 213.762 46.7476C214.743 45.7331 215.549 44.9111 216.18 44.2814L216.233 44.2289C216.303 44.054 216.443 43.8616 216.653 43.6517C216.863 43.4068 217.021 43.1969 217.126 43.022C217.266 42.7072 217.336 42.3748 217.336 42.025C217.336 41.5702 217.214 41.2029 216.968 40.9231C216.758 40.6082 216.548 40.3808 216.338 40.2409C215.287 39.5413 214.27 39.0515 213.289 38.7716C212.308 38.4568 211.538 38.1769 210.977 37.9321C210.802 37.7921 210.714 37.6172 210.714 37.4073C210.714 37.1974 210.784 36.9526 210.924 36.6727C210.995 36.4978 211.152 36.3054 211.397 36.0955C211.678 35.8856 211.923 35.6757 212.133 35.4658C212.449 35.081 212.781 34.7137 213.132 34.3638C213.482 33.979 213.815 33.6642 214.13 33.4193V33.4718C215.041 32.8771 215.83 32.4748 216.495 32.2649C217.161 32.055 217.757 31.9501 218.282 31.9501L219.333 32.0025H219.543C219.719 32.0025 219.824 32.0375 219.859 32.1075C219.929 32.1774 220.034 32.2474 220.174 32.3174H220.227C220.297 32.3174 220.402 32.4048 220.542 32.5797C220.682 32.7547 220.822 32.8771 220.962 32.9471C221.103 32.982 221.26 32.982 221.435 32.9471C221.646 32.9121 221.786 32.8946 221.856 32.8946C222.171 32.8946 222.434 32.7372 222.644 32.4223C222.889 32.0725 223.012 31.6702 223.012 31.2154C223.012 30.9356 222.96 30.6382 222.854 30.3234C222.644 29.6937 222.276 29.2389 221.751 28.9591C221.225 28.6792 220.612 28.5393 219.911 28.5393C218.58 28.5393 217.038 28.9591 215.287 29.7986C213.535 30.6032 211.87 31.6702 210.294 32.9995C209.313 33.8741 208.542 34.7487 207.981 35.6232C207.456 36.4628 207.193 37.2149 207.193 37.8796C207.193 38.5443 207.508 39.0165 208.139 39.2964C208.489 39.4363 208.997 39.5937 209.663 39.7686C210.329 39.9086 210.995 40.0835 211.66 40.2934C212.361 40.5033 212.904 40.7831 213.289 41.133C213.465 41.2029 213.552 41.3953 213.552 41.7102C213.552 42.2349 213.202 42.987 212.501 43.9665C212.431 44.1065 212.396 44.2114 212.396 44.2814C212.431 44.3164 212.449 44.3688 212.449 44.4388L212.396 44.4913C212.361 44.5263 212.256 44.5787 212.081 44.6487C211.941 44.6837 211.835 44.7536 211.765 44.8586C211.52 45.1384 211.24 45.4358 210.924 45.7506C210.644 46.0655 210.329 46.3628 209.979 46.6427C209.103 47.4123 208.034 48.1469 206.773 48.8466C205.546 49.5462 204.18 50.1234 202.673 50.5782C202.533 50.6132 202.305 50.5957 201.99 50.5257C201.675 50.4558 201.395 50.4208 201.149 50.4208C201.079 50.4208 201.027 50.4383 200.992 50.4733L200.939 50.5257C200.764 50.7007 200.676 50.928 200.676 51.2079L200.729 51.3128C200.869 51.4528 200.974 51.5227 201.044 51.5227C201.009 51.7676 201.184 51.925 201.57 51.995Z" fill="#D9A150"/>
<path d="M218.558 51.995C218.943 52.065 219.416 52.1 219.977 52.1C220.642 52.1 221.571 51.925 222.762 51.5752C223.953 51.2604 225.232 50.6832 226.599 49.8436C228.385 48.7591 229.769 47.7271 230.75 46.7476C231.731 45.7331 232.537 44.9111 233.168 44.2814L233.22 44.2289C233.291 44.054 233.431 43.8616 233.641 43.6517C233.851 43.4068 234.009 43.1969 234.114 43.022C234.254 42.7072 234.324 42.3748 234.324 42.025C234.324 41.5702 234.201 41.2029 233.956 40.9231C233.746 40.6082 233.536 40.3808 233.326 40.2409C232.274 39.5413 231.258 39.0515 230.277 38.7716C229.296 38.4568 228.526 38.1769 227.965 37.9321C227.79 37.7921 227.702 37.6172 227.702 37.4073C227.702 37.1974 227.772 36.9526 227.912 36.6727C227.982 36.4978 228.14 36.3054 228.385 36.0955C228.666 35.8856 228.911 35.6757 229.121 35.4658C229.436 35.081 229.769 34.7137 230.12 34.3638C230.47 33.979 230.803 33.6642 231.118 33.4193V33.4718C232.029 32.8771 232.818 32.4748 233.483 32.2649C234.149 32.055 234.745 31.9501 235.27 31.9501L236.321 32.0025H236.531C236.707 32.0025 236.812 32.0375 236.847 32.1075C236.917 32.1774 237.022 32.2474 237.162 32.3174H237.215C237.285 32.3174 237.39 32.4048 237.53 32.5797C237.67 32.7547 237.81 32.8771 237.95 32.9471C238.091 32.982 238.248 32.982 238.423 32.9471C238.634 32.9121 238.774 32.8946 238.844 32.8946C239.159 32.8946 239.422 32.7372 239.632 32.4223C239.877 32.0725 240 31.6702 240 31.2154C240 30.9356 239.947 30.6382 239.842 30.3234C239.632 29.6937 239.264 29.2389 238.739 28.9591C238.213 28.6792 237.6 28.5393 236.899 28.5393C235.568 28.5393 234.026 28.9591 232.274 29.7986C230.523 30.6032 228.858 31.6702 227.282 32.9995C226.301 33.8741 225.53 34.7487 224.969 35.6232C224.444 36.4628 224.181 37.2149 224.181 37.8796C224.181 38.5443 224.496 39.0165 225.127 39.2964C225.477 39.4363 225.985 39.5937 226.651 39.7686C227.317 39.9086 227.982 40.0835 228.648 40.2934C229.349 40.5033 229.892 40.7831 230.277 41.133C230.453 41.2029 230.54 41.3953 230.54 41.7102C230.54 42.2349 230.19 42.987 229.489 43.9665C229.419 44.1065 229.384 44.2114 229.384 44.2814C229.419 44.3164 229.436 44.3688 229.436 44.4388L229.384 44.4913C229.349 44.5263 229.244 44.5787 229.069 44.6487C228.928 44.6837 228.823 44.7536 228.753 44.8586C228.508 45.1384 228.228 45.4358 227.912 45.7506C227.632 46.0655 227.317 46.3628 226.966 46.6427C226.091 47.4123 225.022 48.1469 223.761 48.8466C222.534 49.5462 221.168 50.1234 219.661 50.5782C219.521 50.6132 219.293 50.5957 218.978 50.5257C218.663 50.4558 218.382 50.4208 218.137 50.4208C218.067 50.4208 218.015 50.4383 217.98 50.4733L217.927 50.5257C217.752 50.7007 217.664 50.928 217.664 51.2079L217.717 51.3128C217.857 51.4528 217.962 51.5227 218.032 51.5227C217.997 51.7676 218.172 51.925 218.558 51.995Z" fill="#D9A150"/>
</svg>
